<?xml version="1.0" encoding="UTF-8" standalone="no"?>
<svg
   width="128"
   height="128"
   version="1.1"
   id="svg6"
   sodipodi:docname="icon.svg"
   xml:space="preserve"
   inkscape:version="1.4.3 (0d15f75042, 2025-12-25)"
   xmlns:inkscape="http://www.inkscape.org/namespaces/inkscape"
   xmlns:sodipodi="http://sodipodi.sourceforge.net/DTD/sodipodi-0.dtd"
   xmlns="http://www.w3.org/2000/svg"
   xmlns:svg="http://www.w3.org/2000/svg"><defs
     id="defs6" /><sodipodi:namedview
     id="namedview6"
     pagecolor="#ffffff"
     bordercolor="#000000"
     borderopacity="0.25"
     inkscape:showpageshadow="2"
     inkscape:pageopacity="0.0"
     inkscape:pagecheckerboard="0"
     inkscape:deskcolor="#d1d1d1"
     inkscape:zoom="9.1592427"
     inkscape:cx="102.4648"
     inkscape:cy="61.467964"
     inkscape:window-width="1920"
     inkscape:window-height="1043"
     inkscape:window-x="0"
     inkscape:window-y="0"
     inkscape:window-maximized="1"
     inkscape:current-layer="svg6"
     showgrid="false" /><rect
     width="124"
     height="124"
     x="2"
     y="2"
     fill="#363d52"
     stroke="#212532"
     stroke-width="4"
     rx="14"
     id="rect1" /><g
     fill="#fff"
     transform="translate(12.322 12.322)scale(.101)"
     id="g4"><path
       d="M105 673v33q407 354 814 0v-33z"
       id="path1" /><path
       fill="#478cbf"
       d="m105 673 152 14q12 1 15 14l4 67 132 10 8-61q2-11 15-15h162q13 4 15 15l8 61 132-10 4-67q3-13 15-14l152-14V427q30-39 56-81-35-59-83-108-43 20-82 47-40-37-88-64 7-51 8-102-59-28-123-42-26 43-46 89-49-7-98 0-20-46-46-89-64 14-123 42 1 51 8 102-48 27-88 64-39-27-82-47-48 49-83 108 26 42 56 81zm0 33v39c0 276 813 276 814 0v-39l-134 12-5 69q-2 10-14 13l-162 11q-12 0-16-11l-10-65H446l-10 65q-4 11-16 11l-162-11q-12-3-14-13l-5-69z"
       id="path2" /><path
       d="M483 600c0 34 58 34 58 0v-86c0-34-58-34-58 0z"
       id="path3" /><circle
       cx="725"
       cy="526"
       r="90"
       id="circle3" /><circle
       cx="299"
       cy="526"
       r="90"
       id="circle4" /></g><g
     fill="#414042"
     transform="translate(12.322 12.322)scale(.101)"
     id="g6"><circle
       cx="307"
       cy="532"
       r="60"
       id="circle5" /><circle
       cx="717"
       cy="532"
       r="60"
       id="circle6" /></g><g
     id="g7"
     transform="translate(-73.495778,-3.0880579)"><path
       style="fill:#808080;stroke-width:0.944882;stroke-linejoin:round"
       d="m 157.51146,20.54644 27,27 h -27 z"
       id="path7"
       sodipodi:nodetypes="cccc" /><path
       style="fill:#ffffff;stroke-width:0.944882;stroke-linejoin:round"
       d="m 138.51146,20.54644 v 91 h 36 c 6.71789,0.0512 9.94205,-2.40867 10,-10 v -54 h -19.75 c -4.1151,-0.16556 -7.22658,-2.80157 -7.25,-6.75 v -20.25 z"
       id="path6"
       sodipodi:nodetypes="ccccccccc" /></g><path
     id="text1"
     style="font-size:24px;line-height:0.992126;font-family:'Droid Sans Mono';-inkscape-font-specification:'Droid Sans Mono';writing-mode:lr-tb;direction:ltr;fill:#000000;stroke-width:0.944882;stroke-linejoin:round"
     d="M 73.564453 59.046875 C 71.814453 59.046875 70.435547 59.433594 69.427734 60.207031 C 68.427734 60.972656 67.927734 62.035156 67.927734 63.394531 C 67.927734 64.660156 68.279297 65.691406 68.982422 66.488281 C 69.693359 67.277344 70.861328 67.957031 72.486328 68.527344 C 74.166016 69.128906 75.279297 69.648438 75.826172 70.085938 C 76.380859 70.523438 76.658203 71.148438 76.658203 71.960938 C 76.658203 73.835938 75.291016 74.773438 72.556641 74.773438 C 70.970703 74.773438 69.353516 74.4375 67.705078 73.765625 L 67.705078 75.851562 C 68.869141 76.390625 70.486328 76.660156 72.556641 76.660156 C 74.548828 76.660156 76.083984 76.234375 77.162109 75.382812 C 78.248047 74.523438 78.791016 73.34375 78.791016 71.84375 C 78.791016 70.695312 78.466797 69.757812 77.818359 69.03125 C 77.177734 68.296875 75.896484 67.585938 73.974609 66.898438 C 72.373047 66.34375 71.314453 65.824219 70.798828 65.339844 C 70.291016 64.855469 70.037109 64.214844 70.037109 63.417969 C 70.037109 61.785156 71.181641 60.96875 73.470703 60.96875 C 74.775391 60.96875 76.181641 61.273438 77.689453 61.882812 L 78.439453 59.960938 C 76.978516 59.351562 75.353516 59.046875 73.564453 59.046875 z M 81.650391 59.292969 L 81.650391 61.214844 L 86.548828 61.214844 L 86.548828 76.425781 L 88.740234 76.425781 L 88.740234 61.214844 L 93.626953 61.214844 L 93.626953 59.292969 L 81.650391 59.292969 z M 97.587891 59.292969 L 97.587891 76.425781 L 107.2207 76.425781 L 107.2207 74.480469 L 99.779297 74.480469 L 99.779297 59.292969 L 97.587891 59.292969 z " /></svg>
